<svg width="175" height="26" viewBox="0 0 175 26" fill="none" xmlns="http://www.w3.org/2000/svg">
<path d="M53.6562 16.7049C56.4696 16.7049 57.2156 16.0527 57.2156 15.2215C57.2156 14.3903 56.6742 13.8063 53.2427 13.4993C46.5587 12.9111 44.7513 11.1676 44.7513 8.52895C44.7513 5.69421 47.1256 3.6012 53.166 3.6012C59.2063 3.6012 61.8108 5.80505 61.9941 9.13853H56.8319C56.7296 7.80854 55.8515 7.06682 53.2981 7.06682C50.7447 7.06682 49.9433 7.6764 49.9433 8.52895C49.9433 9.42413 50.4847 9.99108 54.2274 10.2724C60.4979 10.7499 62.4332 12.4763 62.4332 15.1576C62.4332 18.1244 60.0077 20.1706 53.5539 20.1706C47.1 20.1706 44.5978 18.0989 44.4443 14.5437H49.6577C49.8112 15.8737 50.6893 16.7007 53.6562 16.7007V16.7049Z" fill="#35383A"/>
<path d="M77.6044 7.61669V19.8295H73.6315V16.2104C73.0389 18.8619 71.4361 20.1748 68.5971 20.1748C65.7581 20.1748 63.6438 18.4697 63.6438 15.0382V7.61669H68.5971V14.1813C68.5971 15.6776 69.2408 16.253 70.4301 16.253C71.6962 16.253 72.6254 15.4218 72.6254 13.6954V7.61243H77.6044V7.61669Z" fill="#35383A"/>
<path d="M95.0986 13.4695V13.9768C95.0986 17.9838 92.6987 20.1749 89.6295 20.1749C87.025 20.1749 85.5756 18.7682 85.0343 17.6641V23.4956H80.0809V7.61677H84.0538V11.3041C84.6719 8.7464 86.377 7.27148 89.3183 7.27148C92.6476 7.27148 95.0986 9.46255 95.0986 13.4695ZM87.5877 16.3938C89.135 16.3938 90.1155 15.5199 90.1155 13.721C90.1155 11.9222 89.135 11.0483 87.5877 11.0483C86.0403 11.0483 85.0343 11.9691 85.0343 13.721C85.0343 15.473 86.0659 16.3938 87.5877 16.3938Z" fill="#35383A"/>
<path d="M110.892 14.6418H100.956C101.19 16.1167 102.222 16.786 103.59 16.786C104.775 16.786 105.27 16.3469 105.628 15.7245H110.764C110.376 18.0733 108.079 20.1706 103.667 20.1706C98.9692 20.1706 96.1814 17.6811 96.1814 13.9725V13.4653C96.1814 9.75667 98.9692 7.26721 103.692 7.26721C108.416 7.26721 110.995 9.73109 110.995 13.2564C110.995 13.7424 110.969 14.1089 110.892 14.6375V14.6418ZM106.067 12.4081C105.99 11.0483 105.163 10.3364 103.718 10.3364C102.145 10.3364 101.216 11.027 101.007 12.4081H106.067Z" fill="#35383A"/>
<path d="M122.223 7.50167V11.8582C121.707 11.8113 120.982 11.7431 120.16 11.7431C118.454 11.7431 117.632 12.4124 117.632 14.7398V19.8296H112.627V7.61677H116.6V11.3509C117.218 8.33291 118.795 7.27148 120.471 7.27148C121.298 7.27148 121.865 7.40789 122.227 7.50167H122.223Z" fill="#35383A"/>
<path d="M123.898 3.95081H129.06V15.7288H135.523V19.8296H123.898V3.95081Z" fill="#35383A"/>
<path d="M139.372 2.50989C141.154 2.50989 142.134 3.25161 142.134 4.3855C142.134 5.5194 141.154 6.26112 139.372 6.26112C137.59 6.26112 136.61 5.54071 136.61 4.3855C136.61 3.23029 137.59 2.50989 139.372 2.50989Z" fill="#35383A"/>
<path d="M141.844 7.6167H136.891V19.8295H141.844V7.6167Z" fill="#35383A"/>
<path d="M158.286 12.4081V19.8253H153.332V13.2607C153.332 11.7644 152.688 11.189 151.499 11.189C150.233 11.189 149.304 12.0202 149.304 13.7466V19.8296H144.325V7.61677H148.298V11.2359C148.89 8.58442 150.493 7.27148 153.332 7.27148C156.171 7.27148 158.286 8.97659 158.286 12.4081Z" fill="#35383A"/>
<path d="M0 0.5H175V25.5H0V0.5Z" fill="black"/>
<path d="M8.5 13L4 8.5L8.5 4L13 8.5L8.5 13Z" fill="white"/>
<path d="M13 13L17.5 8.5L13 4L8.5 8.5L13 13Z" fill="white"/>
</svg>
