<svg width="36" height="36" viewBox="0 0 36 36" fill="none" xmlns="http://www.w3.org/2000/svg">
<g clip-path="url(#clip0_4039_8549)">
<rect width="36" height="36" rx="18" fill="white"/>
<g clip-path="url(#clip1_4039_8549)">
<path d="M18.0072 0C10.491 0 8.29282 0.00775405 7.86553 0.0432011C6.32307 0.17142 5.36326 0.414288 4.3176 0.934917C3.51176 1.33508 2.87622 1.79894 2.24899 2.44917C1.10669 3.63499 0.414384 5.09386 0.163769 6.828C0.0419236 7.66986 0.00647761 7.84156 -0.00072236 12.1417C-0.00349158 13.5751 -0.00072236 15.4616 -0.00072236 17.9919C-0.00072236 25.5022 0.0075853 27.6983 0.0435852 28.1248C0.1682 29.6257 0.403584 30.5701 0.902044 31.603C1.85466 33.5803 3.67403 35.0647 5.81741 35.6185C6.55956 35.8096 7.37925 35.9148 8.43156 35.9647C8.8774 35.9841 13.4217 35.9979 17.9687 35.9979C22.5158 35.9979 27.0629 35.9924 27.4976 35.9702C28.7161 35.9129 29.4236 35.8179 30.2059 35.6157C32.3632 35.0591 34.1493 33.5969 35.1213 31.5919C35.6101 30.5839 35.8579 29.6036 35.9701 28.181C35.9944 27.8708 36.0047 22.9257 36.0047 17.9872C36.0047 13.0479 35.9936 8.11185 35.9692 7.80168C35.8557 6.35611 35.6079 5.38408 35.1033 4.35667C34.6893 3.51563 34.2296 2.88755 33.5622 2.24535C32.3712 1.10772 30.9146 0.415396 29.1788 0.165051C28.3378 0.0434781 28.1703 0.00747712 23.8669 0H18.0072Z" fill="url(#paint0_radial_4039_8549)"/>
<path d="M18.0072 0C10.491 0 8.29282 0.00775405 7.86553 0.0432011C6.32307 0.17142 5.36326 0.414288 4.3176 0.934917C3.51176 1.33508 2.87622 1.79894 2.24899 2.44917C1.10669 3.63499 0.414384 5.09386 0.163769 6.828C0.0419236 7.66986 0.00647761 7.84156 -0.00072236 12.1417C-0.00349158 13.5751 -0.00072236 15.4616 -0.00072236 17.9919C-0.00072236 25.5022 0.0075853 27.6983 0.0435852 28.1248C0.1682 29.6257 0.403584 30.5701 0.902044 31.603C1.85466 33.5803 3.67403 35.0647 5.81741 35.6185C6.55956 35.8096 7.37925 35.9148 8.43156 35.9647C8.8774 35.9841 13.4217 35.9979 17.9687 35.9979C22.5158 35.9979 27.0629 35.9924 27.4976 35.9702C28.7161 35.9129 29.4236 35.8179 30.2059 35.6157C32.3632 35.0591 34.1493 33.5969 35.1213 31.5919C35.6101 30.5839 35.8579 29.6036 35.9701 28.181C35.9944 27.8708 36.0047 22.9257 36.0047 17.9872C36.0047 13.0479 35.9936 8.11185 35.9692 7.80168C35.8557 6.35611 35.6079 5.38408 35.1033 4.35667C34.6893 3.51563 34.2296 2.88755 33.5622 2.24535C32.3712 1.10772 30.9146 0.415396 29.1788 0.165051C28.3378 0.0434781 28.1703 0.00747712 23.8669 0H18.0072Z" fill="url(#paint1_radial_4039_8549)"/>
<path d="M18 8.99023C15.5533 8.99023 15.2463 9.00093 14.2853 9.04467C13.3262 9.08859 12.6716 9.24043 12.0987 9.46322C11.5062 9.69334 11.0036 10.0012 10.5028 10.5021C10.0017 11.0029 9.69388 11.5055 9.46302 12.0979C9.23967 12.6709 9.08764 13.3258 9.04448 14.2845C9.0015 15.2455 8.99023 15.5528 8.99023 17.9996C8.99023 20.4464 9.00112 20.7525 9.04466 21.7135C9.08877 22.6726 9.24061 23.3273 9.46321 23.9001C9.6935 24.4927 10.0013 24.9953 10.5023 25.4961C11.0028 25.9972 11.5055 26.3058 12.0976 26.5359C12.6708 26.7587 13.3257 26.9105 14.2846 26.9545C15.2455 26.9982 15.5524 27.0089 17.9989 27.0089C20.4458 27.0089 20.7519 26.9982 21.7129 26.9545C22.672 26.9105 23.3274 26.7587 23.9006 26.5359C24.493 26.3058 24.9948 25.9972 25.4954 25.4961C25.9965 24.9953 26.3043 24.4927 26.5352 23.9003C26.7567 23.3273 26.9087 22.6724 26.9537 21.7137C26.9969 20.7527 27.0082 20.4464 27.0082 17.9996C27.0082 15.5528 26.9969 15.2457 26.9537 14.2847C26.9087 13.3256 26.7567 12.6709 26.5352 12.0981C26.3043 11.5055 25.9965 11.0029 25.4954 10.5021C24.9943 10.001 24.4931 9.69315 23.9 9.46322C23.3257 9.24043 22.6707 9.08859 21.7116 9.04467C20.7506 9.00093 20.4447 8.99023 17.9972 8.99023H18ZM17.1919 10.6138C17.4317 10.6134 17.6994 10.6138 18 10.6138C20.4055 10.6138 20.6906 10.6224 21.6405 10.6656C22.5188 10.7058 22.9956 10.8525 23.3131 10.9759C23.7336 11.1391 24.0333 11.3343 24.3484 11.6497C24.6637 11.965 24.8589 12.2653 25.0226 12.6857C25.1459 13.003 25.2929 13.4797 25.3329 14.3581C25.376 15.3078 25.3854 15.5931 25.3854 17.9975C25.3854 20.4019 25.376 20.6872 25.3329 21.6369C25.2927 22.5153 25.1459 22.9921 25.0226 23.3093C24.8593 23.7297 24.6637 24.0291 24.3484 24.3442C24.0331 24.6595 23.7337 24.8547 23.3131 25.018C22.9959 25.1419 22.5188 25.2883 21.6405 25.3285C20.6908 25.3716 20.4055 25.381 18 25.381C15.5944 25.381 15.3093 25.3716 14.3596 25.3285C13.4813 25.2879 13.0045 25.1412 12.6868 25.0178C12.2663 24.8545 11.966 24.6593 11.6507 24.344C11.3354 24.0287 11.1402 23.7291 10.9765 23.3085C10.8532 22.9913 10.7063 22.5146 10.6663 21.6361C10.6231 20.6864 10.6145 20.4011 10.6145 17.9952C10.6145 15.5894 10.6231 15.3056 10.6663 14.3559C10.7065 13.4774 10.8532 13.0007 10.9765 12.6831C11.1398 12.2627 11.3354 11.9624 11.6507 11.647C11.966 11.3317 12.2663 11.1365 12.6868 10.9729C13.0043 10.849 13.4813 10.7026 14.3596 10.6622C15.1907 10.6247 15.5128 10.6134 17.1919 10.6115V10.6138ZM22.809 12.1097C22.2122 12.1097 21.7279 12.5934 21.7279 13.1905C21.7279 13.7873 22.2122 14.2716 22.809 14.2716C23.4059 14.2716 23.8901 13.7873 23.8901 13.1905C23.8901 12.5936 23.4059 12.1093 22.809 12.1093V12.1097ZM18 13.3729C15.445 13.3729 13.3735 15.4445 13.3735 17.9996C13.3735 20.5547 15.445 22.6253 18 22.6253C20.5551 22.6253 22.6258 20.5547 22.6258 17.9996C22.6258 15.4445 20.5551 13.3729 18 13.3729ZM18 14.9965C19.6585 14.9965 21.0031 16.3409 21.0031 17.9996C21.0031 19.658 19.6585 21.0027 18 21.0027C16.3414 21.0027 14.997 19.658 14.997 17.9996C14.997 16.3409 16.3414 14.9965 18 14.9965Z" fill="white"/>
</g>
</g>
<defs>
<radialGradient id="paint0_radial_4039_8549" cx="0" cy="0" r="1" gradientUnits="userSpaceOnUse" gradientTransform="translate(9.56236 38.7705) rotate(-90) scale(35.6766 33.1901)">
<stop stop-color="#FFDD55"/>
<stop offset="0.1" stop-color="#FFDD55"/>
<stop offset="0.5" stop-color="#FF543E"/>
<stop offset="1" stop-color="#C837AB"/>
</radialGradient>
<radialGradient id="paint1_radial_4039_8549" cx="0" cy="0" r="1" gradientUnits="userSpaceOnUse" gradientTransform="translate(-6.03326 2.59323) rotate(78.678) scale(15.9477 65.7519)">
<stop stop-color="#3771C8"/>
<stop offset="0.128" stop-color="#3771C8"/>
<stop offset="1" stop-color="#6600FF" stop-opacity="0"/>
</radialGradient>
<clipPath id="clip0_4039_8549">
<rect width="36" height="36" rx="18" fill="white"/>
</clipPath>
<clipPath id="clip1_4039_8549">
<rect width="36" height="36" fill="white"/>
</clipPath>
</defs>
</svg>
