<svg width="19" height="18" viewBox="0 0 20 18" fill="none" xmlns="http://www.w3.org/2000/svg"><path d="M4 2.00051C3.99974 2.53094 3.78877 3.03955 3.41351 3.41443C3.03825 3.78932 2.52943 3.99978 1.999 3.99951C1.46857 3.99925 0.959965 3.78828 0.585079 3.41302C0.210194 3.03776 -0.000264966 2.52894 2.50361e-07 1.99851C0.000265467 1.46808 0.211233 0.959476 0.586494 0.584591C0.961754 0.209706 1.47057 -0.000753247 2.001 -0.000488031C2.53143 -0.000222814 3.04004 0.210745 3.41492 0.586005C3.78981 0.961266 4.00027 1.47008 4 2.00051ZM4.06 5.48051H0.0600002V18.0005H4.06V5.48051ZM10.38 5.48051H6.4V18.0005H10.34V11.4305C10.34 7.77051 15.11 7.43051 15.11 11.4305V18.0005H19.06V10.0705C19.06 3.90051 12 4.13051 10.34 7.16051L10.38 5.48051Z" fill="currentColor"/></svg>