<svg width="36" height="44" viewBox="0 0 36 44" fill="none" xmlns="http://www.w3.org/2000/svg">
<g opacity="0.2" clipPath="url(#clip0_103_6849)">
<path d="M35.5 41C35.5 42.3735 34.3858 43.5 33.0072 43.5H2.99279C1.62062 43.5 0.5 42.3774 0.5 41C0.5 31.335 8.33502 23.5 18 23.5C27.665 23.5 35.5 31.335 35.5 41ZM18 26.5C10.1592 26.5 3.77198 32.7234 3.50846 40.5H32.4915C32.228 32.7234 25.8408 26.5 18 26.5ZM18 21.5C12.201 21.5 7.5 16.799 7.5 11C7.5 5.20101 12.201 0.5 18 0.5C23.799 0.5 28.5 5.20101 28.5 11C28.5 16.799 23.799 21.5 18 21.5ZM18 18.5C22.1421 18.5 25.5 15.1421 25.5 11C25.5 6.85786 22.1421 3.5 18 3.5C13.8579 3.5 10.5 6.85786 10.5 11C10.5 15.1421 13.8579 18.5 18 18.5Z" fill="#7296DC"/>
</g>
<defs>
<clipPath id="clip0_103_6849">
<rect width="36" height="44" fill="white"/>
</clipPath>
</defs>
</svg>
