<svg width="37" height="26" viewBox="0 0 37 26" fill="none" xmlns="http://www.w3.org/2000/svg">
  <path d="M36.4431 12.9964C36.5326 3.48186 25.6455 -2.43912 17.7125 2.79129C16.2632 3.72484 15.0184 4.97383 14.0849 6.42317C13.9144 6.69599 13.7481 6.97307 13.5947 7.25441C13.5947 7.25441 13.5947 7.25441 13.5947 7.25867C13.5904 7.27146 13.5819 7.28425 13.5734 7.29704C13.454 7.5187 13.1172 7.44197 13.113 7.1862C13.0746 5.2637 13.5137 3.32414 14.3236 1.66166C14.4643 1.36753 14.2767 1.02225 13.957 0.971093C6.77852 -0.154277 -0.0845331 5.62177 0.004985 12.9964C-0.272095 22.4 11.0626 28.4617 18.7356 23.2014C20.4705 22.0803 21.9113 20.5116 22.879 18.6914C22.9983 18.4697 23.3308 18.555 23.3351 18.8065C23.3735 20.729 22.9344 22.6686 22.1245 24.331C21.9795 24.6252 22.1671 24.9662 22.4868 25.0216C29.6696 26.1939 36.588 20.2345 36.4388 12.9964H36.4431ZM8.86301 17.1824C7.37104 17.1824 6.33945 16.3256 6.33945 14.0407C6.33945 11.7559 7.37104 10.8692 8.86301 10.8692C10.355 10.8692 11.3994 11.726 11.3994 14.0407C11.3994 16.3554 10.3635 17.1824 8.86301 17.1824ZM16.2078 17.1824C14.6945 17.1824 13.6842 16.3256 13.6842 14.0407C13.6842 11.7559 14.6945 10.8692 16.2078 10.8692C17.721 10.8692 18.7143 11.726 18.7143 14.0407C18.7143 16.3554 17.6997 17.1824 16.2078 17.1824Z" fill="#35383A"/>
</svg>
